# xmcd
#
# Track frame offsets:
#	150
#	12091
#	22606
#	34130
#	47874
#	57223
#	68813
#	80073
#	91675
#	101955
#	112179
#	124776
#	134453
#	145900
#	157509
#	168859
#	178243
#	189680
#	202081
#	214330
#	225809
#	237252
#	247778
#	256392
#
# Disc length: 3604 seconds
#
# Revision: 2
# Processed by: cddbd v1.5.2PL0 Copyright (c) Steve Scherf et al.
# Submitted via: audiograbber 1.83.01
#
DISCID=440e1218
DTITLE=The Greatest Country Music Recordings of All Time - Record 15 and 16
DYEAR=1900
DGENRE=
TTITLE0=Flatt and Scruggs - Roll In My Sweet Baby's Arms
TTITLE1=Country Gazette - Keep On Pushing
TTITLE2=Reno and Smiley - I'm Using My Bible For A Roadmap
TTITLE3=Seldom Scene - Muddy Water
TTITLE4=Flatt and Scruggs - The Ballad Of Jed Clampett
TTITLE5=Jimmy Martin - Ocean Of Diamonds
TTITLE6=Flatt and Scruggs - Old Salty Dog Blues
TTITLE7=Emerson and Waldron - Fox On The Run
TTITLE8=Carl Story - Mocking Banjo
TTITLE9=The Dillards - Walking Down The Line
TTITLE10=Flatt and Scruggs - Jimmie Brown The Newsboy
TTITLE11=Jim and Jesse - Nine Pound Hammer
TTITLE12=Reno and Smiley - Love, Please Come Home
TTITLE13=Emmylou Harris - Roses In The Snow
TTITLE14=Kenny Baker - Walking In My Sleep
TTITLE15=Earl Taylor - Calling Your Name
TTITLE16=Ralph Stanley - Bright Morning Star
TTITLE17=Flatt and Scruggs - Foggy Mountain Breakdown
TTITLE18=The Kentuckians - Hello City Limits
TTITLE19=Newgrass Revival - Ginseng Sullivan
TTITLE20=Reno and Smiley - Country Boy Rock And Roll
TTITLE21=Larry Sparks - Dark Hollow
TTITLE22=Byrone Berline - Birmingham Fling
TTITLE23=Flatt and Scruggs - Rock Salt And Nails
EXTD=
EXTT0=
EXTT1=
EXTT2=
EXTT3=
EXTT4=
EXTT5=
EXTT6=
EXTT7=
EXTT8=
EXTT9=
EXTT10=
EXTT11=
EXTT12=
EXTT13=
EXTT14=
EXTT15=
EXTT16=
EXTT17=
EXTT18=
EXTT19=
EXTT20=
EXTT21=
EXTT22=
EXTT23=
PLAYORDER=
